<svg width="831" height="498" viewBox="0 0 831 498" fill="none" xmlns="http://www.w3.org/2000/svg">
<path d="M383.622 172.044H150.068C143.904 172.037 137.994 169.533 133.636 165.081C129.277 160.63 126.825 154.594 126.818 148.299V24.5363C126.825 18.2409 129.277 12.2054 133.636 7.75384C137.994 3.30231 143.904 0.798314 150.068 0.791199H383.622C389.786 0.798314 395.696 3.30231 400.055 7.75384C404.414 12.2054 406.865 18.2409 406.872 24.5363V148.299C406.865 154.594 404.414 160.63 400.055 165.081C395.696 169.533 389.786 172.037 383.622 172.044V172.044Z" fill="#F2F2F2"/>
<path d="M691.159 172.044H457.605C451.441 172.037 445.531 169.533 441.173 165.081C436.814 160.63 434.362 154.594 434.355 148.299V24.5363C434.362 18.2409 436.814 12.2054 441.173 7.75384C445.531 3.30231 451.441 0.798314 457.605 0.791199H691.159C697.323 0.798314 703.233 3.30231 707.592 7.75384C711.95 12.2054 714.402 18.2409 714.409 24.5363V148.299C714.402 154.594 711.95 160.63 707.592 165.081C703.233 169.533 697.323 172.037 691.159 172.044V172.044Z" fill="#F2F2F2"/>
<path d="M406.872 377.835H126.818V220.254C126.825 213.958 129.277 207.923 133.636 203.471C137.994 199.02 143.904 196.516 150.068 196.509H383.622C389.786 196.516 395.696 199.02 400.055 203.471C404.414 207.923 406.865 213.958 406.872 220.254V377.835Z" fill="#F2F2F2"/>
<path d="M714.409 377.835H434.355V220.254C434.362 213.958 436.814 207.923 441.173 203.471C445.531 199.02 451.441 196.516 457.605 196.509H691.159C697.323 196.516 703.233 199.02 707.592 203.471C711.95 207.923 714.402 213.958 714.409 220.254V377.835Z" fill="#F2F2F2"/>
<path d="M706.659 385.031H140.205C136.654 385.031 133.249 383.59 130.739 381.026C128.229 378.463 126.818 374.985 126.818 371.359C126.818 367.733 128.229 364.256 130.739 361.692C133.249 359.128 136.654 357.688 140.205 357.688H706.659C710.209 357.688 713.614 359.128 716.125 361.692C718.635 364.256 720.045 367.733 720.045 371.359C720.045 374.985 718.635 378.463 716.125 381.026C713.614 383.59 710.209 385.031 706.659 385.031V385.031Z" fill="#CCCCCC"/>
<path d="M398.773 370.64H167.682V315.954C167.682 284.657 179.855 254.641 201.524 232.511C223.193 210.381 252.583 197.948 283.227 197.948C313.872 197.948 343.261 210.381 364.93 232.511C386.599 254.641 398.773 284.657 398.773 315.954V370.64Z" fill="#CCCCCC"/>
<path d="M674.955 370.64H443.864V315.954C443.864 284.657 456.037 254.641 477.706 232.511C499.375 210.381 528.765 197.948 559.409 197.948C590.054 197.948 619.443 210.381 641.112 232.511C662.781 254.641 674.955 284.657 674.955 315.954V370.64Z" fill="#CCCCCC"/>
<path d="M548.841 496.561H567.159V375.677H548.841V496.561Z" fill="#CCCCCC"/>
<path d="M496.705 495.904C496.705 497.925 524.463 496.686 558.705 496.686C592.946 496.686 620.705 497.925 620.705 495.904C620.705 493.882 592.946 477.853 558.705 477.853C524.463 477.853 496.705 493.882 496.705 495.904Z" fill="#CCCCCC"/>
<path d="M272.659 496.561H290.977V375.677H272.659V496.561Z" fill="#CCCCCC"/>
<path d="M220.523 495.904C220.523 497.925 248.281 496.686 282.523 496.686C316.764 496.686 344.523 497.925 344.523 495.904C344.523 493.882 316.764 477.853 282.523 477.853C248.281 477.853 220.523 493.882 220.523 495.904Z" fill="#CCCCCC"/>
<path d="M364.149 480.082H381.424L389.642 412.03H364.146L364.149 480.082Z" fill="#A0616A"/>
<path d="M414.741 496.462L360.447 496.465L360.447 475.041L393.763 475.04C396.518 475.04 399.245 475.594 401.791 476.67C404.336 477.747 406.648 479.325 408.596 481.314C410.544 483.303 412.089 485.665 413.144 488.264C414.198 490.863 414.741 493.649 414.741 496.462V496.462L414.741 496.462Z" fill="#2F2E41"/>
<path d="M391.116 470.235L407.598 464.953L395.491 397.509L371.164 405.305L391.116 470.235Z" fill="#A0616A"/>
<path d="M444.189 470.395L392.386 486.998L386.106 466.557L417.893 456.369C423.202 454.668 428.954 455.19 433.885 457.82C438.817 460.451 442.523 464.974 444.189 470.395V470.395Z" fill="#2F2E41"/>
<path d="M379.558 438.913L347.956 354.192C340.866 355.892 281.41 369.329 261.496 347.675C254.671 340.253 253.34 329.501 257.54 315.715L269.161 300.8L269.522 300.82C273.917 301.056 377.227 306.97 384.309 338.796C390.28 365.627 401.185 415.651 404.384 430.344C404.709 431.867 404.487 433.457 403.759 434.827C403.031 436.196 401.846 437.253 400.419 437.804L387.71 442.671C387.002 442.943 386.252 443.083 385.495 443.083C384.209 443.082 382.953 442.684 381.893 441.939C380.833 441.195 380.019 440.14 379.558 438.913Z" fill="#2F2E41"/>
<path d="M361.24 448.987L329.638 364.265C322.548 365.966 263.091 379.401 243.178 357.749C236.353 350.327 235.022 339.574 239.222 325.789L250.843 310.874L251.204 310.894C255.598 311.13 358.909 317.043 365.991 348.87C371.962 375.701 382.867 425.725 386.066 440.418C386.391 441.941 386.169 443.531 385.441 444.9C384.713 446.27 383.528 447.326 382.101 447.878L369.392 452.745C368.684 453.017 367.934 453.156 367.177 453.156C365.891 453.156 364.634 452.758 363.574 452.013C362.514 451.269 361.7 450.214 361.24 448.987V448.987Z" fill="#2F2E41"/>
<path d="M332.814 284.616C328.13 284.614 323.527 283.37 319.455 281.006C315.383 278.642 311.983 275.239 309.585 271.129L299.549 253.765L323.404 240.449L333.533 254.633L402.259 247.238C402.594 246.62 402.97 246.027 403.386 245.462V245.462C404.704 243.69 406.374 242.221 408.285 241.152C410.197 240.082 412.307 239.435 414.48 239.254C416.662 239.063 418.859 239.351 420.923 240.099C422.987 240.846 424.87 242.036 426.447 243.589C428.974 246.064 430.608 249.34 431.084 252.883C431.56 256.426 430.849 260.029 429.067 263.108C427.953 265.027 426.454 266.683 424.669 267.968C422.884 269.254 420.853 270.14 418.709 270.568C416.565 270.996 414.357 270.957 412.23 270.453C410.102 269.948 408.102 268.991 406.362 267.643C405.959 267.327 405.572 266.991 405.203 266.635L339.378 283.776C337.232 284.334 335.027 284.617 332.814 284.616V284.616Z" fill="#A0616A"/>
<path d="M238.775 330.263C237.824 329.563 237.081 328.607 236.628 327.503C236.176 326.398 236.032 325.187 236.212 324.004C240.133 297.607 235.622 259.793 231.147 232.719C230.231 227.225 230.587 221.589 232.188 216.262C233.788 210.934 236.588 206.064 240.363 202.04C244.138 198.017 248.783 194.952 253.926 193.092C259.069 191.232 264.567 190.627 269.98 191.328C274.69 191.963 279.355 192.902 283.948 194.14V194.14C291.578 196.102 298.327 200.657 303.086 207.057C307.844 213.456 310.329 221.318 310.132 229.351C309.463 255.477 314.657 288.075 316.922 300.876C317.076 301.756 317.052 302.658 316.85 303.527C316.647 304.397 316.272 305.214 315.747 305.929C315.232 306.636 314.578 307.225 313.827 307.659C313.076 308.092 312.244 308.361 311.385 308.447C286.292 311.062 259.232 323.56 245.335 330.777C244.442 331.248 243.452 331.495 242.447 331.498C241.125 331.493 239.84 331.061 238.775 330.263V330.263Z" fill="#ED64A6"/>
<path d="M306.511 262.176C305.735 261.865 305.028 261.4 304.43 260.808C303.831 260.216 303.354 259.508 303.025 258.726L289.031 225.71C288.184 223.715 287.73 221.569 287.695 219.395C287.66 217.221 288.045 215.061 288.827 213.039C289.61 211.017 290.776 209.172 292.257 207.61C293.738 206.048 295.506 204.8 297.46 203.936C299.414 203.072 301.515 202.61 303.644 202.576C305.773 202.542 307.888 202.937 309.867 203.739C311.846 204.54 313.652 205.731 315.18 207.246C316.708 208.76 317.929 210.566 318.773 212.563L332.767 245.579C333.433 247.155 333.46 248.937 332.841 250.533C332.222 252.13 331.009 253.41 329.467 254.094L311.364 262.098C310.6 262.438 309.778 262.62 308.945 262.634C308.112 262.647 307.285 262.492 306.511 262.176H306.511Z" fill="#ED64A6"/>
<path d="M267.405 180.096C286.519 180.096 302.014 164.271 302.014 144.75C302.014 125.229 286.519 109.404 267.405 109.404C248.291 109.404 232.796 125.229 232.796 144.75C232.796 164.271 248.291 180.096 267.405 180.096Z" fill="#A0616A"/>
<path d="M246.49 176.152C246 176.73 245.401 177.202 244.729 177.539C244.057 177.877 243.326 178.073 242.578 178.117C241.831 178.161 241.082 178.051 240.377 177.795C239.672 177.538 239.024 177.139 238.472 176.622C230.755 170.243 224.634 162.079 220.616 152.807C216.116 141.854 215.457 128.488 220.578 118.221C224.907 109.542 232.677 104.018 240.435 99.5025C243.409 97.5888 246.667 96.182 250.084 95.3374C251.809 94.9374 253.598 94.9109 255.334 95.2596C257.07 95.6082 258.716 96.3244 260.164 97.3619C261.702 98.5558 262.891 100.155 263.606 101.987C264.32 103.82 264.533 105.816 264.22 107.763C267.768 102.988 272.552 99.3217 278.032 97.1758C281.394 95.6979 285.151 95.4409 288.676 96.4477C293.658 98.1459 297.345 103.284 299.397 108.804C301.057 113.03 301.665 117.61 301.166 122.135C300.949 124.296 300.304 126.389 299.27 128.287C298.235 130.185 296.834 131.848 295.151 133.175C291.087 136.039 285.852 135.748 281.126 134.481C276.4 133.213 271.813 131.064 267.005 130.465C262.197 129.866 256.868 131.165 254.003 135.545C251.985 138.63 251.51 142.693 251.098 146.566L248.957 166.711C248.806 169.594 248.198 172.432 247.157 175.115C246.981 175.49 246.756 175.838 246.49 176.152V176.152Z" fill="#2F2E41"/>
<path d="M320.471 321.523C318.413 320.789 316.53 319.62 314.944 318.093C313.357 316.567 312.104 314.716 311.264 312.662C311.07 312.182 310.901 311.693 310.758 311.195L237.032 289.763C233.863 288.828 231.075 286.875 229.079 284.194C227.084 281.513 225.988 278.246 225.955 274.878L225.775 245.806L252.95 246.549L254.721 264.011L317.765 292.918C318.359 292.556 318.976 292.237 319.613 291.962H319.613C321.936 290.968 324.46 290.565 326.968 290.79C329.477 291.015 331.894 291.86 334.011 293.252C336.128 294.645 337.882 296.542 339.12 298.781C340.359 301.021 341.045 303.534 341.119 306.105C341.194 308.675 340.655 311.226 339.548 313.536C338.442 315.846 336.801 317.847 334.769 319.364C332.736 320.882 330.372 321.872 327.881 322.248C325.39 322.624 322.847 322.375 320.471 321.523V321.523Z" fill="#A0616A"/>
<path d="M226.197 258.569C225.644 257.933 225.219 257.191 224.949 256.386C224.678 255.582 224.566 254.73 224.619 253.881L226.781 217.971C226.908 215.8 227.453 213.675 228.385 211.718C229.318 209.762 230.618 208.013 232.213 206.57C233.808 205.128 235.665 204.021 237.68 203.312C239.694 202.604 241.825 202.308 243.951 202.442C246.078 202.575 248.157 203.136 250.071 204.091C251.985 205.046 253.696 206.377 255.105 208.009C256.515 209.64 257.596 211.539 258.286 213.597C258.976 215.656 259.262 217.833 259.128 220.004L256.967 255.913C256.861 257.627 256.095 259.228 254.836 260.365C253.576 261.502 251.927 262.082 250.249 261.979L230.559 260.743C229.727 260.693 228.913 260.476 228.165 260.102C227.416 259.729 226.747 259.208 226.197 258.569V258.569Z" fill="#ED64A6"/>
<path d="M418.596 276.379H398.677C398.038 276.381 397.421 276.139 396.948 275.7C396.474 275.262 396.179 274.659 396.119 274.009L392.132 232.272H425.141L421.154 274.008C421.094 274.658 420.798 275.262 420.325 275.7C419.852 276.139 419.235 276.381 418.596 276.379V276.379Z" fill="#6C63FF"/>
<path d="M425.088 237.523H392.184C391.503 237.522 390.849 237.245 390.367 236.753C389.886 236.261 389.614 235.594 389.614 234.898V228.597C389.614 227.901 389.886 227.233 390.367 226.741C390.849 226.249 391.503 225.972 392.184 225.971H425.088C425.77 225.972 426.423 226.249 426.905 226.741C427.387 227.233 427.658 227.901 427.659 228.597V234.898C427.658 235.594 427.387 236.261 426.905 236.753C426.423 237.245 425.77 237.522 425.088 237.523Z" fill="#3F3D56"/>
<path d="M119.106 238.962H78.9278C77.7438 238.962 76.6083 239.442 75.7711 240.298C74.9339 241.153 74.4636 242.312 74.4636 243.521V330.148H81.1599V250.36C81.1599 249.151 81.6302 247.991 82.4674 247.136C83.3046 246.281 84.4401 245.801 85.6241 245.801H114.641C115.825 245.801 116.961 246.281 117.798 247.136C118.635 247.991 119.106 249.151 119.106 250.36V330.148H125.802V243.521C125.802 242.312 125.332 241.153 124.494 240.298C123.657 239.442 122.522 238.962 121.338 238.962H119.106Z" fill="#63B3ED"/>
<path d="M145.891 496.561H49.9106C44.8804 496.555 40.0578 494.512 36.501 490.879C32.9441 487.246 30.9434 482.321 30.9377 477.184V333.567C30.9434 328.43 32.9441 323.504 36.501 319.872C40.0578 316.239 44.8804 314.196 49.9106 314.19H145.891C150.921 314.196 155.744 316.239 159.3 319.872C162.857 323.504 164.858 328.43 164.864 333.567V477.184C164.858 482.321 162.857 487.246 159.3 490.879C155.744 494.512 150.921 496.555 145.891 496.561V496.561Z" fill="#63B3ED"/>
<path d="M32.6864 433.705C26.1623 433.705 22.6419 419.905 22.6419 406.919C22.6419 393.934 26.1622 380.134 32.6864 380.134C39.2105 380.134 42.7308 393.934 42.7308 406.919C42.7308 419.905 39.2104 433.705 32.6864 433.705ZM32.6864 382.413C28.9911 382.413 24.874 392.478 24.874 406.919C24.874 421.361 28.9911 431.425 32.6864 431.425C36.3816 431.425 40.4987 421.361 40.4987 406.919C40.4987 392.478 36.3816 382.413 32.6864 382.413Z" fill="#63B3ED"/>
<path d="M139.195 411.075H121.338C119.858 411.073 118.44 410.472 117.394 409.403C116.348 408.335 115.759 406.886 115.757 405.375V391.698C115.759 390.187 116.348 388.738 117.394 387.67C118.44 386.602 119.858 386 121.338 385.999H139.195C140.674 386 142.092 386.602 143.138 387.67C144.185 388.738 144.773 390.187 144.775 391.698V405.375C144.773 406.886 144.185 408.335 143.138 409.403C142.092 410.472 140.674 411.073 139.195 411.075V411.075Z" fill="white"/>
<path d="M144.775 486.904H42.7308C42.1388 486.904 41.5711 486.663 41.1525 486.236C40.7339 485.808 40.4987 485.228 40.4987 484.624V325.588C40.4987 324.984 40.7339 324.404 41.1525 323.976C41.5711 323.549 42.1388 323.309 42.7308 323.309H144.775C145.367 323.309 145.934 323.549 146.353 323.976C146.772 324.404 147.007 324.984 147.007 325.588C147.007 326.193 146.772 326.773 146.353 327.2C145.934 327.628 145.367 327.868 144.775 327.868H44.9629V482.344H144.775C145.366 482.346 145.932 482.587 146.349 483.014C146.767 483.441 147.001 484.02 147.001 484.624C147.001 485.227 146.767 485.806 146.349 486.234C145.932 486.661 145.366 486.902 144.775 486.904V486.904Z" fill="white"/>
<path d="M683.029 60.4503C681.717 59.2937 680.195 58.4105 678.551 57.8505C674.873 56.688 671.01 56.2591 667.173 56.5872C664.358 56.7493 661.561 57.1473 658.81 57.7774L530.35 94.8939C527.923 95.5899 525.538 96.4008 523.194 97.3265C514.913 94.0169 491.502 84.4429 488.936 81.0078L478.867 84.0148L495.653 109.605C495.228 109.794 494.87 110.11 494.624 110.511C494.378 110.912 494.257 111.38 494.276 111.853C494.294 112.325 494.452 112.781 494.729 113.161C495.006 113.54 495.388 113.826 495.827 113.979C515.179 120.766 544.406 111.755 544.406 111.755L656.653 79.0032C656.653 79.0032 690.532 67.2993 683.029 60.4503Z" fill="white"/>
<path d="M619.377 80.9721L546.423 101.091L542.113 109.895L619.377 80.9721Z" fill="#F2F2F2"/>
<path d="M773.591 498H1.40909C1.03538 498 0.676989 497.848 0.412734 497.578C0.148478 497.309 0 496.943 0 496.561C0 496.179 0.148478 495.813 0.412734 495.543C0.676989 495.273 1.03538 495.122 1.40909 495.122H773.591C773.965 495.122 774.323 495.273 774.587 495.543C774.852 495.813 775 496.179 775 496.561C775 496.943 774.852 497.309 774.587 497.578C774.323 497.848 773.965 498 773.591 498Z" fill="#CCCCCC"/>
<path d="M581.636 16.9457C578.738 16.9449 575.872 17.5552 573.215 18.7382C570.559 19.9213 568.17 21.6517 566.199 23.821C563.849 22.8667 561.306 22.5148 558.793 22.7961C556.279 23.0775 553.871 23.9835 551.78 25.435C549.688 26.8865 547.976 28.8391 546.795 31.1223C545.613 33.4055 544.997 35.9496 545 38.5322H602.773C602.773 32.8071 600.546 27.3165 596.582 23.2682C592.618 19.22 587.242 16.9457 581.636 16.9457Z" fill="white"/>
<path d="M366.636 124.305C363.738 124.305 360.872 124.915 358.215 126.098C355.559 127.281 353.17 129.011 351.199 131.181C348.849 130.226 346.306 129.875 343.793 130.156C341.279 130.437 338.871 131.343 336.78 132.795C334.688 134.246 332.976 136.199 331.795 138.482C330.613 140.765 329.997 143.309 330 145.892H387.773C387.773 143.057 387.226 140.25 386.164 137.631C385.102 135.012 383.545 132.632 381.582 130.628C379.619 128.623 377.289 127.033 374.725 125.949C372.161 124.864 369.412 124.305 366.636 124.305Z" fill="white"/>
</svg>
