<svg width="831" height="909" viewBox="0 0 831 909" fill="none" xmlns="http://www.w3.org/2000/svg">
<path d="M383.622 583.044H150.068C143.904 583.037 137.994 580.533 133.636 576.081C129.277 571.63 126.825 565.594 126.818 559.299V435.536C126.825 429.241 129.277 423.205 133.636 418.754C137.994 414.302 143.904 411.798 150.068 411.791H383.622C389.786 411.798 395.696 414.302 400.055 418.754C404.414 423.205 406.865 429.241 406.872 435.536V559.299C406.865 565.594 404.414 571.63 400.055 576.081C395.696 580.533 389.786 583.037 383.622 583.044V583.044Z" fill="#F2F2F2"/>
<path d="M691.159 583.044H457.605C451.441 583.037 445.531 580.533 441.173 576.081C436.814 571.63 434.362 565.594 434.355 559.299V435.536C434.362 429.241 436.814 423.205 441.173 418.754C445.531 414.302 451.441 411.798 457.605 411.791H691.159C697.323 411.798 703.233 414.302 707.592 418.754C711.95 423.205 714.402 429.241 714.409 435.536V559.299C714.402 565.594 711.95 571.63 707.592 576.081C703.233 580.533 697.323 583.037 691.159 583.044V583.044Z" fill="#F2F2F2"/>
<path d="M406.872 788.835H126.818V631.254C126.825 624.958 129.277 618.923 133.636 614.471C137.994 610.02 143.904 607.516 150.068 607.509H383.622C389.786 607.516 395.696 610.02 400.055 614.471C404.414 618.923 406.865 624.958 406.872 631.254V788.835Z" fill="#F2F2F2"/>
<path d="M714.409 788.835H434.355V631.254C434.362 624.958 436.814 618.923 441.173 614.471C445.531 610.02 451.441 607.516 457.605 607.509H691.159C697.323 607.516 703.233 610.02 707.592 614.471C711.95 618.923 714.402 624.958 714.409 631.254V788.835Z" fill="#F2F2F2"/>
<path d="M706.659 796.031H140.205C136.654 796.031 133.249 794.59 130.739 792.026C128.229 789.463 126.818 785.985 126.818 782.359C126.818 778.733 128.229 775.256 130.739 772.692C133.249 770.128 136.654 768.688 140.205 768.688H706.659C710.209 768.688 713.614 770.128 716.125 772.692C718.635 775.256 720.045 778.733 720.045 782.359C720.045 785.985 718.635 789.463 716.125 792.026C713.614 794.59 710.209 796.031 706.659 796.031V796.031Z" fill="#CCCCCC"/>
<path d="M398.773 781.64H167.682V726.954C167.682 695.657 179.855 665.641 201.524 643.511C223.193 621.381 252.583 608.948 283.227 608.948C313.872 608.948 343.261 621.381 364.93 643.511C386.599 665.641 398.773 695.657 398.773 726.954V781.64Z" fill="#CCCCCC"/>
<path d="M674.955 781.64H443.864V726.954C443.864 695.657 456.037 665.641 477.706 643.511C499.375 621.381 528.765 608.948 559.409 608.948C590.054 608.948 619.443 621.381 641.112 643.511C662.781 665.641 674.955 695.657 674.955 726.954V781.64Z" fill="#CCCCCC"/>
<path d="M548.841 907.561H567.159V786.677H548.841V907.561Z" fill="#CCCCCC"/>
<path d="M496.705 906.904C496.705 908.925 524.463 907.686 558.705 907.686C592.946 907.686 620.705 908.925 620.705 906.904C620.705 904.882 592.946 888.853 558.705 888.853C524.463 888.853 496.705 904.882 496.705 906.904Z" fill="#CCCCCC"/>
<path d="M272.659 907.561H290.977V786.677H272.659V907.561Z" fill="#CCCCCC"/>
<path d="M220.523 906.904C220.523 908.925 248.281 907.686 282.523 907.686C316.764 907.686 344.523 908.925 344.523 906.904C344.523 904.882 316.764 888.853 282.523 888.853C248.281 888.853 220.523 904.882 220.523 906.904Z" fill="#CCCCCC"/>
<path d="M364.149 891.082H381.424L389.642 823.03H364.146L364.149 891.082Z" fill="#A0616A"/>
<path d="M414.741 907.462L360.447 907.465L360.447 886.041L393.763 886.04C396.518 886.04 399.245 886.594 401.791 887.67C404.336 888.747 406.648 890.325 408.596 892.314C410.544 894.303 412.089 896.665 413.144 899.264C414.198 901.863 414.741 904.649 414.741 907.462V907.462L414.741 907.462Z" fill="#2F2E41"/>
<path d="M391.116 881.235L407.598 875.953L395.491 808.509L371.164 816.305L391.116 881.235Z" fill="#A0616A"/>
<path d="M444.189 881.395L392.386 897.998L386.106 877.557L417.893 867.369C423.202 865.668 428.954 866.19 433.885 868.82C438.817 871.451 442.523 875.974 444.189 881.395V881.395Z" fill="#2F2E41"/>
<path d="M379.558 849.913L347.956 765.192C340.866 766.892 281.41 780.329 261.496 758.675C254.671 751.253 253.34 740.501 257.54 726.715L269.161 711.8L269.522 711.82C273.917 712.056 377.227 717.97 384.309 749.796C390.28 776.627 401.185 826.651 404.384 841.344C404.709 842.867 404.487 844.457 403.759 845.827C403.031 847.196 401.846 848.253 400.419 848.804L387.71 853.671C387.002 853.943 386.252 854.083 385.495 854.083C384.209 854.082 382.953 853.684 381.893 852.939C380.833 852.195 380.019 851.14 379.558 849.913Z" fill="#2F2E41"/>
<path d="M361.24 859.987L329.638 775.265C322.548 776.966 263.091 790.401 243.178 768.749C236.353 761.327 235.022 750.574 239.222 736.789L250.843 721.874L251.204 721.894C255.598 722.13 358.909 728.043 365.991 759.87C371.962 786.701 382.867 836.725 386.066 851.418C386.391 852.941 386.169 854.531 385.441 855.9C384.713 857.27 383.528 858.326 382.101 858.878L369.392 863.745C368.684 864.017 367.934 864.156 367.177 864.156C365.891 864.156 364.634 863.758 363.574 863.013C362.514 862.269 361.7 861.214 361.24 859.987V859.987Z" fill="#2F2E41"/>
<path d="M332.814 695.616C328.13 695.614 323.527 694.37 319.455 692.006C315.383 689.642 311.983 686.239 309.585 682.129L299.549 664.765L323.404 651.449L333.533 665.633L402.259 658.238C402.594 657.62 402.97 657.027 403.386 656.462V656.462C404.704 654.69 406.374 653.221 408.285 652.152C410.197 651.082 412.307 650.435 414.48 650.254C416.662 650.063 418.859 650.351 420.923 651.099C422.987 651.846 424.87 653.036 426.447 654.589C428.974 657.064 430.608 660.34 431.084 663.883C431.56 667.426 430.849 671.029 429.067 674.108C427.953 676.027 426.454 677.683 424.669 678.968C422.884 680.254 420.853 681.14 418.709 681.568C416.565 681.996 414.357 681.957 412.23 681.453C410.102 680.948 408.102 679.991 406.362 678.643C405.959 678.327 405.572 677.991 405.203 677.635L339.378 694.776C337.232 695.334 335.027 695.617 332.814 695.616V695.616Z" fill="#A0616A"/>
<path d="M238.775 741.263C237.824 740.563 237.081 739.607 236.628 738.503C236.176 737.398 236.032 736.187 236.212 735.004C240.133 708.607 235.622 670.793 231.147 643.719C230.231 638.225 230.587 632.589 232.188 627.262C233.788 621.934 236.588 617.064 240.363 613.04C244.138 609.017 248.783 605.952 253.926 604.092C259.069 602.232 264.567 601.627 269.98 602.328C274.69 602.963 279.355 603.902 283.948 605.14V605.14C291.578 607.102 298.327 611.657 303.086 618.057C307.844 624.456 310.329 632.318 310.132 640.351C309.463 666.477 314.657 699.075 316.922 711.876C317.076 712.756 317.052 713.658 316.85 714.527C316.647 715.397 316.272 716.214 315.747 716.929C315.232 717.636 314.578 718.225 313.827 718.659C313.076 719.092 312.244 719.361 311.385 719.447C286.292 722.062 259.232 734.56 245.335 741.777C244.442 742.248 243.452 742.495 242.447 742.498C241.125 742.493 239.84 742.061 238.775 741.263V741.263Z" fill="#ED64A6"/>
<path d="M306.511 673.176C305.735 672.865 305.028 672.4 304.43 671.808C303.831 671.216 303.354 670.508 303.025 669.726L289.031 636.71C288.184 634.715 287.73 632.569 287.695 630.395C287.66 628.221 288.045 626.061 288.827 624.039C289.61 622.017 290.776 620.172 292.257 618.61C293.738 617.048 295.506 615.8 297.46 614.936C299.414 614.072 301.515 613.61 303.644 613.576C305.773 613.542 307.888 613.937 309.867 614.739C311.846 615.54 313.652 616.731 315.18 618.246C316.708 619.76 317.929 621.566 318.773 623.563L332.767 656.579C333.433 658.155 333.46 659.937 332.841 661.533C332.222 663.13 331.009 664.41 329.467 665.094L311.364 673.098C310.6 673.438 309.778 673.62 308.945 673.634C308.112 673.647 307.285 673.492 306.511 673.176H306.511Z" fill="#ED64A6"/>
<path d="M267.405 591.096C286.519 591.096 302.014 575.271 302.014 555.75C302.014 536.229 286.519 520.404 267.405 520.404C248.291 520.404 232.796 536.229 232.796 555.75C232.796 575.271 248.291 591.096 267.405 591.096Z" fill="#A0616A"/>
<path d="M246.49 587.152C246 587.73 245.401 588.202 244.729 588.539C244.057 588.877 243.326 589.073 242.578 589.117C241.831 589.161 241.082 589.051 240.377 588.795C239.672 588.538 239.024 588.139 238.472 587.622C230.755 581.243 224.634 573.079 220.616 563.807C216.116 552.854 215.457 539.488 220.578 529.221C224.907 520.542 232.677 515.018 240.435 510.503C243.409 508.589 246.667 507.182 250.084 506.337C251.809 505.937 253.598 505.911 255.334 506.26C257.07 506.608 258.716 507.324 260.164 508.362C261.702 509.556 262.891 511.155 263.606 512.987C264.32 514.82 264.533 516.816 264.22 518.763C267.768 513.988 272.552 510.322 278.032 508.176C281.394 506.698 285.151 506.441 288.676 507.448C293.658 509.146 297.345 514.284 299.397 519.804C301.057 524.03 301.665 528.61 301.166 533.135C300.949 535.296 300.304 537.389 299.27 539.287C298.235 541.185 296.834 542.848 295.151 544.175C291.087 547.039 285.852 546.748 281.126 545.481C276.4 544.213 271.813 542.064 267.005 541.465C262.197 540.866 256.868 542.165 254.003 546.545C251.985 549.63 251.51 553.693 251.098 557.566L248.957 577.711C248.806 580.594 248.198 583.432 247.157 586.115C246.981 586.49 246.756 586.838 246.49 587.152V587.152Z" fill="#2F2E41"/>
<path d="M320.471 732.523C318.413 731.789 316.53 730.62 314.944 729.093C313.357 727.567 312.104 725.716 311.264 723.662C311.07 723.182 310.901 722.693 310.758 722.195L237.032 700.763C233.863 699.828 231.075 697.875 229.079 695.194C227.084 692.513 225.988 689.246 225.955 685.878L225.775 656.806L252.95 657.549L254.721 675.011L317.765 703.918C318.359 703.556 318.976 703.237 319.613 702.962H319.613C321.936 701.968 324.46 701.565 326.968 701.79C329.477 702.015 331.894 702.86 334.011 704.252C336.128 705.645 337.882 707.542 339.12 709.781C340.359 712.021 341.045 714.534 341.119 717.105C341.194 719.675 340.655 722.226 339.548 724.536C338.442 726.846 336.801 728.847 334.769 730.364C332.736 731.882 330.372 732.872 327.881 733.248C325.39 733.624 322.847 733.375 320.471 732.523V732.523Z" fill="#A0616A"/>
<path d="M226.197 669.569C225.644 668.933 225.219 668.191 224.949 667.386C224.678 666.582 224.566 665.73 224.619 664.881L226.781 628.971C226.908 626.8 227.453 624.675 228.385 622.718C229.318 620.762 230.618 619.013 232.213 617.57C233.808 616.128 235.665 615.021 237.68 614.312C239.694 613.604 241.825 613.308 243.951 613.442C246.078 613.575 248.157 614.136 250.071 615.091C251.985 616.046 253.696 617.377 255.105 619.009C256.515 620.64 257.596 622.539 258.286 624.597C258.976 626.656 259.262 628.833 259.128 631.004L256.967 666.913C256.861 668.627 256.095 670.228 254.836 671.365C253.576 672.502 251.927 673.082 250.249 672.979L230.559 671.743C229.727 671.693 228.913 671.476 228.165 671.102C227.416 670.729 226.747 670.208 226.197 669.569V669.569Z" fill="#ED64A6"/>
<path d="M418.596 687.379H398.677C398.038 687.381 397.421 687.139 396.948 686.7C396.474 686.262 396.179 685.659 396.119 685.009L392.132 643.272H425.141L421.154 685.008C421.094 685.658 420.798 686.262 420.325 686.7C419.852 687.139 419.235 687.381 418.596 687.379V687.379Z" fill="#6C63FF"/>
<path d="M425.088 648.523H392.184C391.503 648.522 390.849 648.245 390.367 647.753C389.886 647.261 389.614 646.594 389.614 645.898V639.597C389.614 638.901 389.886 638.233 390.367 637.741C390.849 637.249 391.503 636.972 392.184 636.971H425.088C425.77 636.972 426.423 637.249 426.905 637.741C427.387 638.233 427.658 638.901 427.659 639.597V645.898C427.658 646.594 427.387 647.261 426.905 647.753C426.423 648.245 425.77 648.522 425.088 648.523Z" fill="#3F3D56"/>
<path d="M119.106 649.962H78.9278C77.7438 649.962 76.6083 650.442 75.7711 651.298C74.9339 652.153 74.4636 653.312 74.4636 654.521V741.148H81.1599V661.36C81.1599 660.151 81.6302 658.991 82.4674 658.136C83.3046 657.281 84.4401 656.801 85.6241 656.801H114.641C115.825 656.801 116.961 657.281 117.798 658.136C118.635 658.991 119.106 660.151 119.106 661.36V741.148H125.802V654.521C125.802 653.312 125.332 652.153 124.494 651.298C123.657 650.442 122.522 649.962 121.338 649.962H119.106Z" fill="#63B3ED"/>
<path d="M145.891 907.561H49.9106C44.8804 907.555 40.0578 905.512 36.501 901.879C32.9441 898.246 30.9434 893.321 30.9377 888.184V744.567C30.9434 739.43 32.9441 734.504 36.501 730.872C40.0578 727.239 44.8804 725.196 49.9106 725.19H145.891C150.921 725.196 155.744 727.239 159.3 730.872C162.857 734.504 164.858 739.43 164.864 744.567V888.184C164.858 893.321 162.857 898.246 159.3 901.879C155.744 905.512 150.921 907.555 145.891 907.561V907.561Z" fill="#63B3ED"/>
<path d="M32.6864 844.705C26.1623 844.705 22.6419 830.905 22.6419 817.919C22.6419 804.934 26.1622 791.134 32.6864 791.134C39.2105 791.134 42.7308 804.934 42.7308 817.919C42.7308 830.905 39.2104 844.705 32.6864 844.705ZM32.6864 793.413C28.9911 793.413 24.874 803.478 24.874 817.919C24.874 832.361 28.9911 842.425 32.6864 842.425C36.3816 842.425 40.4987 832.361 40.4987 817.919C40.4987 803.478 36.3816 793.413 32.6864 793.413Z" fill="#63B3ED"/>
<path d="M139.195 822.075H121.338C119.858 822.073 118.44 821.472 117.394 820.403C116.348 819.335 115.759 817.886 115.757 816.375V802.698C115.759 801.187 116.348 799.738 117.394 798.67C118.44 797.602 119.858 797 121.338 796.999H139.195C140.674 797 142.092 797.602 143.138 798.67C144.185 799.738 144.773 801.187 144.775 802.698V816.375C144.773 817.886 144.185 819.335 143.138 820.403C142.092 821.472 140.674 822.073 139.195 822.075V822.075Z" fill="white"/>
<path d="M144.775 897.904H42.7308C42.1388 897.904 41.5711 897.663 41.1525 897.236C40.7339 896.808 40.4987 896.228 40.4987 895.624V736.588C40.4987 735.984 40.7339 735.404 41.1525 734.976C41.5711 734.549 42.1388 734.309 42.7308 734.309H144.775C145.367 734.309 145.934 734.549 146.353 734.976C146.772 735.404 147.007 735.984 147.007 736.588C147.007 737.193 146.772 737.773 146.353 738.2C145.934 738.628 145.367 738.868 144.775 738.868H44.9629V893.344H144.775C145.366 893.346 145.932 893.587 146.349 894.014C146.767 894.441 147.001 895.02 147.001 895.624C147.001 896.227 146.767 896.806 146.349 897.234C145.932 897.661 145.366 897.902 144.775 897.904V897.904Z" fill="white"/>
<path d="M683.029 471.45C681.717 470.294 680.195 469.411 678.551 468.851C674.873 467.688 671.01 467.259 667.173 467.587C664.358 467.749 661.561 468.147 658.81 468.777L530.35 505.894C527.923 506.59 525.538 507.401 523.194 508.327C514.913 505.017 491.502 495.443 488.936 492.008L478.867 495.015L495.653 520.605C495.228 520.794 494.87 521.11 494.624 521.511C494.378 521.912 494.257 522.38 494.276 522.853C494.294 523.325 494.452 523.781 494.729 524.161C495.006 524.54 495.388 524.826 495.827 524.979C515.179 531.766 544.406 522.755 544.406 522.755L656.653 490.003C656.653 490.003 690.532 478.299 683.029 471.45Z" fill="white"/>
<path d="M619.377 491.972L546.423 512.091L542.113 520.895L619.377 491.972Z" fill="#F2F2F2"/>
<path d="M773.591 909H1.40909C1.03538 909 0.676989 908.848 0.412734 908.578C0.148478 908.309 0 907.943 0 907.561C0 907.179 0.148478 906.813 0.412734 906.543C0.676989 906.273 1.03538 906.122 1.40909 906.122H773.591C773.965 906.122 774.323 906.273 774.587 906.543C774.852 906.813 775 907.179 775 907.561C775 907.943 774.852 908.309 774.587 908.578C774.323 908.848 773.965 909 773.591 909Z" fill="#CCCCCC"/>
<path d="M581.636 427.946C578.738 427.945 575.872 428.555 573.215 429.738C570.559 430.921 568.17 432.652 566.199 434.821C563.849 433.867 561.306 433.515 558.793 433.796C556.279 434.078 553.871 434.984 551.78 436.435C549.688 437.886 547.976 439.839 546.795 442.122C545.613 444.405 544.997 446.95 545 449.532H602.773C602.773 443.807 600.546 438.316 596.582 434.268C592.618 430.22 587.242 427.946 581.636 427.946Z" fill="white"/>
<path d="M366.636 535.305C363.738 535.305 360.872 535.915 358.215 537.098C355.559 538.281 353.17 540.011 351.199 542.181C348.849 541.226 346.306 540.875 343.793 541.156C341.279 541.437 338.871 542.343 336.78 543.795C334.688 545.246 332.976 547.199 331.795 549.482C330.613 551.765 329.997 554.309 330 556.892H387.773C387.773 554.057 387.226 551.25 386.164 548.631C385.102 546.012 383.545 543.632 381.582 541.628C379.619 539.623 377.289 538.033 374.725 536.949C372.161 535.864 369.412 535.305 366.636 535.305Z" fill="white"/>
</svg>
